<?xml version="1.0" standalone="no"?>
<!DOCTYPE svg PUBLIC "-//W3C//DTD SVG 20010904//EN"
 "http://www.w3.org/TR/2001/REC-SVG-20010904/DTD/svg10.dtd">
<svg version="1.0" xmlns="http://www.w3.org/2000/svg"
 width="600.000000pt" height="600.000000pt" viewBox="0 0 600.000000 600.000000"
 preserveAspectRatio="xMidYMid meet">
<metadata>
Created by potrace 1.14, written by Peter Selinger 2001-2017
</metadata>
<g transform="translate(0.000000,600.000000) scale(0.100000,-0.100000)"
fill="#000000" stroke="none">
<path d="M2800 5992 c0 -4 -27 -7 -60 -7 -33 1 -60 -1 -60 -4 0 -4 -17 -8 -37
-8 -94 -5 -113 -7 -113 -13 0 -4 -13 -7 -30 -8 -68 -5 -79 -6 -75 -12 3 -4
-10 -8 -28 -9 -53 -3 -57 -4 -57 -11 0 -3 -8 -6 -17 -7 -41 -3 -63 -8 -63 -13
0 -3 -9 -7 -20 -8 -44 -4 -50 -6 -50 -14 0 -5 -4 -7 -9 -3 -5 3 -12 1 -16 -4
-3 -6 -12 -8 -20 -4 -8 3 -15 0 -15 -7 0 -7 -8 -9 -21 -5 -14 5 -19 4 -15 -4
5 -7 1 -9 -8 -5 -9 3 -16 1 -16 -6 0 -6 -4 -9 -9 -5 -5 3 -12 1 -16 -4 -3 -6
-13 -7 -22 -4 -11 4 -14 3 -9 -5 5 -8 2 -10 -8 -6 -9 3 -16 1 -16 -6 0 -6 -4
-8 -10 -5 -5 3 -10 2 -10 -4 0 -6 -7 -7 -17 -4 -12 5 -14 3 -8 -7 6 -10 4 -12
-8 -7 -10 4 -17 1 -17 -5 0 -6 -3 -8 -6 -5 -4 3 -16 1 -28 -5 -11 -7 -24 -11
-28 -10 -5 1 -8 -3 -8 -9 0 -5 -4 -8 -9 -5 -4 3 -19 -3 -31 -14 -27 -23 -34
-25 -25 -7 4 6 0 4 -8 -5 -8 -10 -17 -15 -20 -11 -4 3 -7 1 -7 -6 0 -7 -4 -10
-9 -6 -5 3 -16 -1 -24 -9 -8 -8 -17 -12 -21 -9 -3 4 -6 1 -6 -6 0 -7 -4 -9
-10 -6 -5 3 -10 1 -10 -5 0 -6 -4 -8 -10 -5 -5 3 -10 1 -10 -6 0 -7 -3 -9 -7
-6 -3 4 -12 -1 -20 -11 -8 -9 -11 -11 -7 -3 7 14 -55 -26 -68 -44 -5 -6 -8 -6
-8 -1 0 6 -7 1 -16 -10 -8 -10 -12 -12 -8 -4 4 8 -6 3 -23 -12 -16 -16 -34
-28 -41 -28 -7 0 -12 -5 -12 -11 0 -5 -4 -8 -9 -4 -6 3 -14 -3 -20 -12 -6 -10
-11 -14 -11 -9 0 6 -7 1 -16 -10 -8 -10 -13 -12 -9 -4 4 8 -5 2 -18 -14 -16
-18 -29 -26 -37 -21 -9 5 -11 4 -6 -3 4 -7 2 -12 -3 -12 -11 0 -39 -21 -74
-55 -11 -12 -17 -14 -13 -5 4 8 -5 2 -19 -15 -15 -16 -24 -23 -19 -15 4 8 -8
-1 -28 -20 -19 -19 -54 -51 -77 -70 -23 -19 -60 -53 -82 -75 -23 -22 -38 -33
-33 -25 4 8 -40 -33 -98 -92 -58 -60 -110 -108 -117 -108 -6 0 -11 -9 -11 -19
0 -11 -5 -23 -12 -27 -7 -5 -8 -3 -3 6 5 9 4 11 -3 6 -7 -4 -12 -14 -12 -22 0
-8 -7 -14 -15 -14 -9 0 -19 -8 -22 -17 -4 -10 -14 -25 -23 -33 -9 -8 -11 -13
-5 -10 6 3 -1 -6 -15 -19 -14 -13 -18 -20 -10 -16 8 4 2 -4 -15 -18 -16 -14
-27 -28 -23 -32 4 -4 -2 -16 -12 -28 -11 -11 -17 -24 -14 -29 3 -4 0 -8 -6 -8
-6 0 -8 -4 -5 -10 3 -5 3 -10 -2 -10 -12 0 -44 -60 -37 -71 3 -5 1 -9 -5 -9
-6 0 -18 -14 -27 -31 -8 -17 -11 -28 -5 -25 17 11 13 2 -9 -24 -11 -12 -17
-27 -14 -31 3 -5 -5 -23 -17 -41 -13 -17 -16 -28 -8 -23 11 7 12 6 2 -6 -6 -8
-13 -23 -15 -34 -1 -11 -6 -22 -10 -25 -6 -5 -14 -38 -20 -85 -2 -11 -6 -23
-11 -26 -8 -6 -20 -70 -19 -106 0 -13 -4 -23 -8 -23 -5 0 -9 -8 -9 -17 -1 -39
-7 -89 -12 -98 -3 -6 -5 -23 -4 -40 0 -16 -3 -40 -7 -53 -5 -16 -5 -21 3 -16
8 4 8 1 1 -12 -11 -21 -4 -389 8 -389 1 0 3 -16 4 -35 2 -19 6 -48 9 -65 4
-16 11 -55 17 -85 12 -60 17 -82 20 -90 1 -3 3 -9 4 -15 11 -56 20 -85 28 -85
5 0 6 -5 3 -10 -4 -6 -2 -17 4 -24 6 -7 8 -22 4 -31 -4 -12 -3 -16 4 -12 7 5
9 0 6 -11 -2 -10 2 -24 11 -31 8 -7 12 -19 9 -27 -3 -8 0 -14 7 -14 6 0 8 -4
5 -10 -3 -5 0 -20 7 -32 7 -13 11 -26 10 -30 -1 -5 3 -8 9 -8 5 0 7 -4 4 -10
-3 -5 -1 -10 5 -10 6 0 9 -4 5 -10 -3 -5 -1 -17 5 -27 17 -31 53 -118 52 -125
-1 -5 2 -8 7 -8 5 0 12 -14 16 -30 4 -17 11 -28 16 -24 5 3 10 -1 11 -8 0 -7
2 -17 3 -23 2 -5 3 -16 4 -23 0 -7 6 -10 13 -6 7 5 8 3 3 -6 -5 -8 -2 -18 9
-26 10 -7 17 -15 17 -18 -3 -20 0 -26 9 -21 6 4 9 3 8 -2 -3 -11 25 -73 34
-73 4 0 4 -7 1 -17 -4 -11 -3 -14 5 -9 8 4 10 2 6 -7 -3 -8 1 -21 8 -28 8 -8
14 -23 15 -34 0 -11 4 -31 8 -45 4 -14 7 -33 7 -42 -1 -10 2 -18 6 -18 4 0 8
-26 9 -58 2 -51 11 -230 13 -274 1 -10 5 -20 10 -23 5 -3 7 -12 4 -19 -3 -8 0
-17 5 -21 6 -3 9 -11 6 -16 -4 -5 -1 -9 5 -9 6 0 9 -4 6 -9 -9 -14 5 -42 17
-34 6 4 7 1 3 -6 -5 -7 0 -19 10 -27 11 -9 12 -12 4 -8 -14 7 0 -14 38 -54 6
-7 12 -18 12 -23 0 -5 4 -9 10 -9 5 0 19 -9 30 -20 12 -12 26 -18 32 -14 6 4
8 3 5 -3 -3 -5 8 -18 25 -28 21 -12 28 -14 23 -4 -5 8 0 7 12 -4 11 -9 23 -14
26 -10 4 3 7 2 7 -4 0 -5 6 -10 13 -11 19 -2 59 -10 87 -17 14 -4 35 -7 48 -8
12 -1 22 -5 22 -10 0 -5 6 -7 14 -4 8 3 16 2 18 -3 2 -5 14 -10 28 -12 14 -2
30 -6 35 -9 6 -4 24 -10 40 -14 17 -5 32 -9 35 -11 18 -7 46 -15 54 -14 5 1
12 -2 15 -7 11 -14 72 -44 65 -30 -4 6 2 3 14 -7 12 -11 22 -16 22 -12 0 4 7
0 16 -8 8 -9 19 -14 24 -11 5 3 10 1 12 -4 1 -5 9 -11 17 -13 8 -2 23 -10 33
-18 10 -8 22 -15 26 -15 3 0 17 -10 30 -22 13 -12 29 -21 34 -20 11 2 17 -34
18 -107 1 -22 4 -45 8 -50 3 -6 7 -27 8 -46 1 -19 2 -35 3 -35 1 0 4 -16 6
-35 2 -19 6 -48 10 -65 3 -16 7 -39 9 -50 2 -11 5 -21 6 -22 1 -2 4 -7 5 -13
1 -5 4 -13 5 -17 1 -5 3 -12 4 -18 12 -54 20 -74 27 -69 5 3 6 -2 3 -10 -3 -9
-2 -16 3 -16 13 0 16 -70 11 -304 l-3 -118 37 -30 c21 -16 42 -27 48 -23 5 3
10 1 10 -5 0 -7 6 -10 14 -7 7 3 18 1 24 -5 6 -6 18 -7 29 -3 10 5 29 10 43
11 14 2 26 8 28 14 2 5 8 8 13 4 5 -3 9 -1 9 4 0 5 12 17 26 27 34 22 43 9 35
-48 -5 -37 -3 -45 21 -69 16 -15 28 -24 28 -20 0 3 7 -3 15 -14 8 -10 15 -15
15 -10 0 6 7 1 16 -10 8 -10 12 -12 8 -4 -7 13 -5 13 9 1 20 -16 97 -22 115
-8 6 5 12 6 12 2 0 -4 8 -1 17 6 14 12 16 12 9 -1 -6 -11 -4 -11 6 1 13 16 19
19 39 19 5 0 7 4 4 10 -6 9 8 14 28 11 5 -1 6 3 2 9 -3 5 -1 10 4 10 6 0 11 8
11 18 0 10 7 19 15 19 10 0 14 -9 11 -30 -2 -23 4 -36 28 -58 17 -16 38 -36
47 -44 9 -9 26 -17 38 -18 11 -1 21 -5 21 -10 0 -5 7 -7 15 -4 8 4 17 2 20 -3
8 -13 72 -13 80 1 4 6 13 8 21 5 7 -3 19 0 26 7 8 7 20 13 28 15 8 2 23 13 33
25 10 12 15 15 11 7 -7 -13 -5 -13 9 -1 9 7 14 18 10 24 -3 5 -1 7 5 3 6 -3
14 -1 18 5 4 7 15 1 31 -17 13 -16 21 -22 18 -14 -4 8 2 5 12 -8 10 -13 26
-24 33 -26 8 -1 25 -8 38 -14 12 -7 27 -10 32 -7 6 3 10 1 10 -4 0 -6 18 -11
40 -11 22 0 40 4 40 10 0 5 7 7 15 4 8 -4 15 -1 15 5 0 6 3 10 8 10 4 -1 10 0
15 1 4 1 11 3 16 4 5 0 19 12 31 26 12 14 18 18 14 10 -4 -8 6 -1 23 15 21 21
28 38 26 58 -2 18 2 27 12 27 8 0 15 -7 15 -15 0 -8 5 -15 11 -15 5 0 8 -4 5
-9 -3 -5 5 -12 19 -15 14 -4 25 -11 25 -17 0 -6 4 -7 10 -4 5 3 10 1 10 -5 0
-6 4 -9 9 -6 5 4 11 1 13 -4 2 -6 31 -12 66 -15 43 -3 61 -1 56 7 -4 6 -1 9 7
6 8 -3 23 2 33 11 16 13 18 13 11 1 -5 -8 4 -2 18 13 15 15 31 26 36 22 5 -3
13 0 17 6 5 8 2 10 -7 5 -10 -5 -10 -4 1 6 12 10 16 41 17 138 1 69 2 128 2
133 1 4 7 7 14 7 10 0 13 -17 12 -65 -1 -35 2 -62 6 -59 5 3 9 -3 9 -12 0 -10
3 -14 7 -11 3 4 12 -1 20 -11 9 -10 12 -11 7 -2 -5 10 -1 9 14 -3 11 -11 26
-16 31 -12 6 3 11 2 11 -3 0 -22 96 0 118 27 11 13 12 13 6 1 -4 -8 4 -5 17 7
21 21 23 32 25 120 0 54 -3 103 -8 110 -6 7 -6 18 -2 24 4 7 8 42 9 78 2 71 6
93 18 102 4 3 9 17 10 30 0 13 4 26 8 29 7 5 17 42 24 95 2 11 4 20 5 20 4 0
11 42 12 73 1 17 5 32 8 32 3 0 7 19 7 43 1 23 5 62 8 87 6 49 14 110 14 123
1 5 6 5 11 2 6 -3 10 -1 10 4 0 6 7 11 15 11 8 0 15 5 15 10 0 6 7 10 16 10 9
0 12 5 8 12 -5 7 -2 9 9 5 8 -3 21 1 27 8 7 8 16 12 21 9 5 -3 9 0 9 5 0 6 6
11 14 11 7 0 26 10 42 22 15 13 25 17 20 10 -4 -7 16 1 44 18 28 17 49 26 45
20 -3 -6 0 -7 9 -4 9 3 14 10 11 14 -3 5 5 6 17 2 15 -4 19 -2 13 8 -5 8 -3
11 6 8 8 -3 22 -1 32 4 10 5 30 12 45 14 14 3 30 8 36 12 6 3 17 7 26 8 16 3
52 11 60 14 3 1 8 2 13 1 4 0 7 3 7 8 0 4 11 6 25 3 15 -2 25 0 25 7 0 7 10
10 25 7 14 -3 25 -1 25 4 0 5 6 7 14 4 8 -3 17 0 21 5 3 6 11 9 16 6 5 -4 9
-1 9 5 0 6 4 9 10 5 5 -3 18 3 29 14 11 11 21 17 24 15 2 -2 21 9 42 26 21 16
34 30 29 30 -5 0 -1 5 9 11 23 14 78 99 71 110 -3 5 -1 9 4 9 6 0 13 7 16 16
4 10 2 13 -7 9 -6 -4 -5 -1 3 7 9 7 15 20 15 28 -1 8 1 19 4 25 8 16 11 45 17
160 5 113 11 200 14 200 1 0 3 7 5 15 2 8 6 29 10 45 4 17 7 38 8 48 1 9 5 17
9 17 4 0 5 7 2 15 -4 8 -1 15 6 15 6 0 8 5 5 10 -3 6 -1 10 5 10 7 0 10 6 7
13 -2 6 3 18 12 25 13 11 13 12 1 7 -9 -4 -7 0 4 9 10 8 15 20 10 27 -5 8 -3
10 6 4 10 -6 12 -4 7 9 -4 10 -3 15 3 11 9 -5 11 -1 10 20 -1 3 6 13 15 21 8
9 13 19 10 24 -3 4 2 11 11 14 8 3 12 10 9 16 -3 5 -1 10 5 10 6 0 9 4 6 9 -3
5 1 14 9 21 8 7 15 17 15 22 0 6 11 32 25 60 13 27 19 46 12 42 -6 -4 -4 2 6
13 9 11 14 23 10 26 -3 4 -2 7 4 7 9 0 18 21 28 60 0 3 6 15 13 28 7 12 9 22
5 22 -4 0 -2 4 4 8 7 4 14 17 16 27 2 11 8 30 15 41 6 12 9 24 5 27 -3 4 0 13
6 21 7 8 10 20 6 26 -3 5 -2 10 3 10 6 0 13 7 16 16 4 10 2 13 -7 8 -9 -6 -9
-5 0 8 7 8 10 18 6 21 -3 4 -2 7 4 7 5 0 10 6 10 13 0 6 4 26 8 42 3 17 8 39
10 50 2 11 7 31 10 45 4 14 8 36 10 50 1 14 3 25 4 25 7 0 22 121 24 188 1 26
4 47 7 47 3 0 6 67 5 150 0 82 -2 150 -5 150 -3 0 -5 21 -4 48 0 26 -2 52 -5
57 -3 6 -6 19 -8 30 -9 85 -15 119 -22 134 -4 9 -6 22 -4 29 3 6 1 12 -4 12
-4 0 -9 12 -10 28 -4 39 -8 55 -16 69 -4 6 -8 23 -9 37 -1 14 -6 26 -11 26 -4
0 -6 4 -2 9 3 5 0 13 -6 16 -5 4 -8 13 -5 21 3 8 1 14 -5 14 -6 0 -8 4 -4 9 3
5 -2 16 -11 25 -8 9 -13 20 -10 25 3 5 -4 21 -16 37 -13 16 -16 25 -8 20 11
-5 11 -4 -1 6 -9 7 -14 19 -11 27 3 9 0 11 -8 6 -10 -6 -12 -4 -7 8 3 10 2 17
-4 17 -6 0 -8 4 -4 10 3 5 -3 18 -13 28 -10 10 -16 24 -14 32 3 7 0 10 -6 6
-5 -3 -13 1 -16 10 -4 10 -2 13 6 8 6 -4 0 8 -15 28 -15 19 -27 40 -27 46 0 6
-17 28 -37 49 -21 20 -29 31 -18 24 11 -8 -1 7 -27 32 -26 24 -44 48 -41 51 4
3 -1 6 -11 6 -9 0 -15 4 -12 9 3 5 -1 12 -10 15 -8 3 -12 11 -8 17 4 7 3 10
-2 7 -5 -3 -22 8 -39 24 -16 17 -23 27 -15 23 9 -5 12 -4 7 1 -5 5 -14 9 -20
9 -7 1 -11 7 -9 14 1 7 -2 10 -7 7 -5 -3 -15 2 -22 11 -12 14 -12 16 0 8 10
-5 12 -4 7 3 -4 7 -14 12 -22 12 -8 0 -14 7 -14 15 0 8 -6 15 -14 15 -7 0 -21
11 -32 24 -10 14 -21 23 -26 20 -4 -3 -8 2 -8 10 0 8 -5 18 -12 22 -7 5 -9 2
-4 -7 4 -8 -10 5 -32 28 -22 23 -42 40 -45 37 -3 -3 -8 4 -12 15 -3 12 -10 19
-15 16 -5 -3 -13 3 -19 12 -6 10 -11 14 -11 10 0 -4 -6 -2 -14 5 -8 7 -13 15
-11 18 1 3 -12 16 -29 30 -25 19 -28 20 -16 4 8 -11 2 -6 -14 10 -16 17 -25
24 -22 16 4 -8 -1 -5 -12 7 -11 12 -22 19 -26 16 -3 -4 -6 1 -6 11 0 9 -4 15
-9 12 -5 -3 -12 1 -15 10 -4 9 -9 14 -12 11 -4 -3 -14 2 -23 11 -9 10 -14 13
-11 7 3 -6 -4 -2 -15 10 -11 11 -29 27 -39 35 -18 13 -19 13 -12 0 4 -8 0 -6
-8 4 -9 11 -16 16 -16 11 0 -5 -7 0 -15 11 -8 10 -15 15 -15 9 0 -5 -5 -3 -10
5 -5 8 -15 15 -22 15 -7 1 -12 7 -10 14 1 7 -2 10 -7 7 -5 -3 -19 2 -32 12
-13 11 -39 25 -56 33 -18 8 -33 18 -33 22 0 5 -4 5 -10 2 -5 -3 -10 -1 -10 5
0 6 -4 9 -9 6 -5 -4 -11 -2 -13 3 -1 5 -10 11 -18 13 -8 2 -21 10 -28 18 -8 8
-11 9 -7 3 8 -17 0 -17 -17 0 -21 20 -71 50 -64 38 5 -7 1 -9 -8 -5 -9 3 -13
10 -10 15 3 5 -2 6 -10 3 -9 -3 -16 -1 -16 6 0 6 -4 8 -10 5 -5 -3 -10 -1 -10
6 0 7 -3 9 -6 6 -4 -3 -16 0 -26 8 -11 7 -27 11 -36 8 -11 -5 -13 -3 -7 7 6
10 4 12 -8 7 -10 -3 -17 -2 -17 2 0 5 -7 12 -16 15 -10 4 -13 2 -9 -7 4 -6 -1
-3 -9 7 -9 11 -16 16 -16 12 0 -5 -7 -3 -15 4 -8 6 -19 9 -25 5 -5 -3 -10 -1
-10 5 0 7 -6 10 -14 7 -8 -3 -16 -2 -18 3 -2 4 -17 10 -35 13 -17 3 -38 9 -45
13 -14 9 -35 15 -58 16 -8 0 -20 5 -27 10 -7 5 -17 7 -23 3 -5 -3 -10 -1 -10
5 0 6 -5 8 -10 5 -6 -4 -17 -2 -24 4 -7 6 -22 9 -34 6 -12 -2 -22 1 -22 7 0 6
-9 8 -20 5 -11 -3 -20 -1 -20 4 0 5 -11 7 -25 5 -13 -3 -27 0 -31 5 -3 5 -14
7 -25 4 -10 -4 -19 -2 -19 3 0 5 -15 9 -32 10 -52 3 -123 10 -123 12 0 2 -23
3 -52 4 -29 1 -55 5 -59 9 -10 10 -404 9 -404 -1z"/>
<path d="M989 5183 c-13 -16 -12 -17 4 -4 16 13 21 21 13 21 -2 0 -10 -8 -17
-17z"/>
</g>
</svg>
